<mxfile host="app.diagrams.net" modified="2022-11-11T03:12:17.165Z" agent="5.0 (Windows NT 10.0; Win64; x64) AppleWebKit/537.36 (KHTML, like Gecko) Chrome/107.0.0.0 Safari/537.36 Edg/107.0.1418.35" etag="CXfIx9K9tyV7rua7sjDp" version="16.6.4" type="github">
  <diagram id="vpXKB8i8PWC-8kQvJ1Xg" name="第 1 页">
    <mxGraphModel dx="782" dy="579" grid="1" gridSize="10" guides="1" tooltips="1" connect="1" arrows="1" fold="1" page="1" pageScale="1" pageWidth="827" pageHeight="1169" math="0" shadow="0">
      <root>
        <mxCell id="0" />
        <mxCell id="1" parent="0" />
        <mxCell id="tRD1Xg3fFsawaXqB5Y8W-1" value="&lt;font style=&quot;font-size: 32px&quot;&gt;Receipt&lt;/font&gt;" style="text;html=1;strokeColor=none;fillColor=none;align=center;verticalAlign=middle;whiteSpace=wrap;rounded=0;" vertex="1" parent="1">
          <mxGeometry x="339" y="30" width="150" height="30" as="geometry" />
        </mxCell>
        <mxCell id="tRD1Xg3fFsawaXqB5Y8W-41" value="Payload" style="swimlane;fontSize=32;startSize=50;" vertex="1" parent="1">
          <mxGeometry x="110" y="60" width="190" height="200" as="geometry" />
        </mxCell>
        <mxCell id="tRD1Xg3fFsawaXqB5Y8W-20" value="Component" style="swimlane;childLayout=stackLayout;horizontal=1;startSize=30;horizontalStack=0;rounded=1;fontSize=14;fontStyle=0;strokeWidth=2;resizeParent=0;resizeLast=1;shadow=0;dashed=0;align=center;" vertex="1" parent="tRD1Xg3fFsawaXqB5Y8W-41">
          <mxGeometry x="30" y="65" width="130" height="90" as="geometry" />
        </mxCell>
        <mxCell id="tRD1Xg3fFsawaXqB5Y8W-21" value="+ TYPE&#xa;+ LEN&#xa;+ DATA" style="align=left;strokeColor=none;fillColor=none;spacingLeft=4;fontSize=12;verticalAlign=top;resizable=0;rotatable=0;part=1;" vertex="1" parent="tRD1Xg3fFsawaXqB5Y8W-20">
          <mxGeometry y="30" width="130" height="60" as="geometry" />
        </mxCell>
        <mxCell id="tRD1Xg3fFsawaXqB5Y8W-38" value="TYPE" style="swimlane;childLayout=stackLayout;horizontal=1;startSize=30;horizontalStack=0;rounded=1;fontSize=14;fontStyle=0;strokeWidth=2;resizeParent=0;resizeLast=1;shadow=0;dashed=0;align=center;" vertex="1" parent="tRD1Xg3fFsawaXqB5Y8W-41">
          <mxGeometry x="211" y="50" width="160" height="120" as="geometry" />
        </mxCell>
        <mxCell id="tRD1Xg3fFsawaXqB5Y8W-39" value="&quot;01&quot;：DATAFILE&#xa;&quot;02&quot;：SIGNATURE&#xa;&quot;03&quot;：TRANSINFO&#xa;&quot;05&quot;：IMAGE" style="align=left;strokeColor=none;fillColor=none;spacingLeft=4;fontSize=12;verticalAlign=top;resizable=0;rotatable=0;part=1;" vertex="1" parent="tRD1Xg3fFsawaXqB5Y8W-38">
          <mxGeometry y="30" width="160" height="90" as="geometry" />
        </mxCell>
        <mxCell id="tRD1Xg3fFsawaXqB5Y8W-40" value="" style="endArrow=open;endFill=1;endSize=12;html=1;rounded=0;fontSize=32;entryX=-0.008;entryY=0.158;entryDx=0;entryDy=0;entryPerimeter=0;" edge="1" parent="tRD1Xg3fFsawaXqB5Y8W-41" target="tRD1Xg3fFsawaXqB5Y8W-38">
          <mxGeometry width="160" relative="1" as="geometry">
            <mxPoint x="81" y="105" as="sourcePoint" />
            <mxPoint x="231" y="105" as="targetPoint" />
          </mxGeometry>
        </mxCell>
        <mxCell id="tRD1Xg3fFsawaXqB5Y8W-42" value="...n" style="text;html=1;strokeColor=none;fillColor=none;align=center;verticalAlign=middle;whiteSpace=wrap;rounded=0;fontSize=32;" vertex="1" parent="tRD1Xg3fFsawaXqB5Y8W-41">
          <mxGeometry x="65" y="160" width="60" height="30" as="geometry" />
        </mxCell>
      </root>
    </mxGraphModel>
  </diagram>
</mxfile>
